<svg xmlns="http://www.w3.org/2000/svg" width="512" height="512" viewBox="0 0 512 512">
  <!-- Background circle with gradient -->
  <defs>
    <linearGradient id="bg-gradient" x1="0%" y1="0%" x2="100%" y2="100%">
      <stop offset="0%" style="stop-color:#3b82f6;stop-opacity:1" />
      <stop offset="100%" style="stop-color:#1e40af;stop-opacity:1" />
    </linearGradient>
    <linearGradient id="paper-gradient" x1="0%" y1="0%" x2="0%" y2="100%">
      <stop offset="0%" style="stop-color:#ffffff;stop-opacity:1" />
      <stop offset="100%" style="stop-color:#f1f5f9;stop-opacity:1" />
    </linearGradient>
  </defs>
  
  <!-- Background -->
  <circle cx="256" cy="256" r="240" fill="url(#bg-gradient)" />
  
  <!-- Paper/clipboard -->
  <rect x="156" y="120" width="200" height="272" rx="8" ry="8" fill="url(#paper-gradient)" stroke="#e2e8f0" stroke-width="2" />
  
  <!-- Header line -->
  <rect x="176" y="150" width="160" height="3" rx="1.5" fill="#cbd5e1" />
  
  <!-- Todo items (checkboxes and lines) -->
  <!-- First todo item - checked -->
  <rect x="176" y="180" width="16" height="16" rx="2" fill="#22c55e" stroke="#16a34a" stroke-width="1" />
  <path d="M181 186 L184 189 L189 184" stroke="white" stroke-width="2" fill="none" stroke-linecap="round" stroke-linejoin="round" />
  <rect x="200" y="183" width="120" height="2" rx="1" fill="#9ca3af" />
  <line x1="200" y1="188" x2="320" y2="188" stroke="#9ca3af" stroke-width="1" />
  
  <!-- Second todo item - unchecked -->
  <rect x="176" y="210" width="16" height="16" rx="2" fill="white" stroke="#cbd5e1" stroke-width="1" />
  <rect x="200" y="213" width="140" height="2" rx="1" fill="#374151" />
  <rect x="200" y="218" width="100" height="2" rx="1" fill="#6b7280" />
  
  <!-- Third todo item - unchecked -->
  <rect x="176" y="240" width="16" height="16" rx="2" fill="white" stroke="#cbd5e1" stroke-width="1" />
  <rect x="200" y="243" width="110" height="2" rx="1" fill="#374151" />
  <rect x="200" y="248" width="130" height="2" rx="1" fill="#6b7280" />
  
  <!-- Fourth todo item - unchecked -->
  <rect x="176" y="270" width="16" height="16" rx="2" fill="white" stroke="#cbd5e1" stroke-width="1" />
  <rect x="200" y="273" width="125" height="2" rx="1" fill="#374151" />
  <rect x="200" y="278" width="90" height="2" rx="1" fill="#6b7280" />
  
  <!-- Plus icon for adding new items -->
  <circle cx="256" cy="340" r="20" fill="#3b82f6" />
  <rect x="251" y="332" width="10" height="16" rx="1" fill="white" />
  <rect x="248" y="335" width="16" height="10" rx="1" fill="white" />
</svg>